<svg style="position: absolute; width: 0px; height: 0px; overflow: hidden">
  <symbol id="arrow-right-from-bracket" viewBox="0 0 512 512">
    <path
      d="M502.6 278.6c12.5-12.5 12.5-32.8 0-45.3l-128-128c-12.5-12.5-32.8-12.5-45.3 0s-12.5 32.8 0 45.3L402.7 224 192 224c-17.7 0-32 14.3-32 32s14.3 32 32 32l210.7 0-73.4 73.4c-12.5 12.5-12.5 32.8 0 45.3s32.8 12.5 45.3 0l128-128zM160 96c17.7 0 32-14.3 32-32s-14.3-32-32-32L96 32C43 32 0 75 0 128L0 384c0 53 43 96 96 96l64 0c17.7 0 32-14.3 32-32s-14.3-32-32-32l-64 0c-17.7 0-32-14.3-32-32l0-256c0-17.7 14.3-32 32-32l64 0z"
    />
  </symbol>
  <symbol id="arrow-right-solid" viewBox="0 0 448 512">
    <path
      d="M438.6 278.6c12.5-12.5 12.5-32.8 0-45.3l-160-160c-12.5-12.5-32.8-12.5-45.3 0s-12.5 32.8 0 45.3L338.8 224 32 224c-17.7 0-32 14.3-32 32s14.3 32 32 32l306.7 0L233.4 393.4c-12.5 12.5-12.5 32.8 0 45.3s32.8 12.5 45.3 0l160-160z"
    />
  </symbol>
  <symbol id="arrow-up-from-bracket-solid" viewBox="0 0 448 512">
    <path
      d="M246.6 9.4c-12.5-12.5-32.8-12.5-45.3 0l-128 128c-12.5 12.5-12.5 32.8 0 45.3s32.8 12.5 45.3 0L192 109.3 192 320c0 17.7 14.3 32 32 32s32-14.3 32-32l0-210.7 73.4 73.4c12.5 12.5 32.8 12.5 45.3 0s12.5-32.8 0-45.3l-128-128zM64 352c0-17.7-14.3-32-32-32s-32 14.3-32 32l0 64c0 53 43 96 96 96l256 0c53 0 96-43 96-96l0-64c0-17.7-14.3-32-32-32s-32 14.3-32 32l0 64c0 17.7-14.3 32-32 32L96 448c-17.7 0-32-14.3-32-32l0-64z"
    />
  </symbol>
  <symbol id="arrows-rotate-solid" viewBox="0 0 512 512">
    <path
      d="M105.1 202.6c7.7-21.8 20.2-42.3 37.8-59.8c62.5-62.5 163.8-62.5 226.3 0L386.3 160H352c-17.7 0-32 14.3-32 32s14.3 32 32 32H463.5c0 0 0 0 0 0h.4c17.7 0 32-14.3 32-32V80c0-17.7-14.3-32-32-32s-32 14.3-32 32v35.2L414.4 97.6c-87.5-87.5-229.3-87.5-316.8 0C73.2 122 55.6 150.7 44.8 181.4c-5.9 16.7 2.9 34.9 19.5 40.8s34.9-2.9 40.8-19.5zM39 289.3c-5 1.5-9.8 4.2-13.7 8.2c-4 4-6.7 8.8-8.1 14c-.3 1.2-.6 2.5-.8 3.8c-.3 1.7-.4 3.4-.4 5.1V432c0 17.7 14.3 32 32 32s32-14.3 32-32V396.9l17.6 17.5 0 0c87.5 87.4 229.3 87.4 316.7 0c24.4-24.4 42.1-53.1 52.9-83.7c5.9-16.7-2.9-34.9-19.5-40.8s-34.9 2.9-40.8 19.5c-7.7 21.8-20.2 42.3-37.8 59.8c-62.5 62.5-163.8 62.5-226.3 0l-.1-.1L125.6 352H160c17.7 0 32-14.3 32-32s-14.3-32-32-32H48.4c-1.6 0-3.2 .1-4.8 .3s-3.1 .5-4.6 1z"
    />
  </symbol>
  <symbol id="b-solid" viewBox="0 0 320 512">
    <path
      d="M64 32C28.7 32 0 60.7 0 96V256 416c0 35.3 28.7 64 64 64H192c70.7 0 128-57.3 128-128c0-46.5-24.8-87.3-62-109.7c18.7-22.3 30-51 30-82.3c0-70.7-57.3-128-128-128H64zm96 192H64V96h96c35.3 0 64 28.7 64 64s-28.7 64-64 64zM64 288h96 32c35.3 0 64 28.7 64 64s-28.7 64-64 64H64V288z"
    />
  </symbol>
  <symbol id="bold-solid" viewBox="0 0 384 512">
    <path
      d="M0 64C0 46.3 14.3 32 32 32H80 96 224c70.7 0 128 57.3 128 128c0 31.3-11.3 60.1-30 82.3c37.1 22.4 62 63.1 62 109.7c0 70.7-57.3 128-128 128H96 80 32c-17.7 0-32-14.3-32-32s14.3-32 32-32H48V256 96H32C14.3 96 0 81.7 0 64zM224 224c35.3 0 64-28.7 64-64s-28.7-64-64-64H112V224H224zM112 288V416H256c35.3 0 64-28.7 64-64s-28.7-64-64-64H224 112z"
    />
  </symbol>
  <symbol id="chevron-right-solid" viewBox="0 0 320 512">
    <path
      d="M310.6 233.4c12.5 12.5 12.5 32.8 0 45.3l-192 192c-12.5 12.5-32.8 12.5-45.3 0s-12.5-32.8 0-45.3L242.7 256 73.4 86.6c-12.5-12.5-12.5-32.8 0-45.3s32.8-12.5 45.3 0l192 192z"
    />
  </symbol>
  <symbol id="chevron-up-regular" viewBox="0 0 512 512">
    <path
      d="M239 111c9.4-9.4 24.6-9.4 33.9 0L465 303c9.4 9.4 9.4 24.6 0 33.9s-24.6 9.4-33.9 0l-175-175L81 337c-9.4 9.4-24.6 9.4-33.9 0s-9.4-24.6 0-33.9L239 111z"
    />
  </symbol>
  <symbol id="code-solid" viewBox="0 0 640 512">
    <path
      d="M392.8 1.2c-17-4.9-34.7 5-39.6 22l-128 448c-4.9 17 5 34.7 22 39.6s34.7-5 39.6-22l128-448c4.9-17-5-34.7-22-39.6zm80.6 120.1c-12.5 12.5-12.5 32.8 0 45.3L562.7 256l-89.4 89.4c-12.5 12.5-12.5 32.8 0 45.3s32.8 12.5 45.3 0l112-112c12.5-12.5 12.5-32.8 0-45.3l-112-112c-12.5-12.5-32.8-12.5-45.3 0zm-306.7 0c-12.5-12.5-32.8-12.5-45.3 0l-112 112c-12.5 12.5-12.5 32.8 0 45.3l112 112c12.5 12.5 32.8 12.5 45.3 0s12.5-32.8 0-45.3L77.3 256l89.4-89.4c12.5-12.5 12.5-32.8 0-45.3z"
    />
  </symbol>
  <symbol id="command-regular" viewBox="0 0 512 512">
    <path
      d="M0 92C0 41.2 41.2 0 92 0s92 41.2 92 92v44H328V92c0-50.8 41.2-92 92-92s92 41.2 92 92v4c0 53-43 96-96 96H376V320h40c53 0 96 43 96 96v4c0 50.8-41.2 92-92 92s-92-41.2-92-92V376H184v44c0 50.8-41.2 92-92 92s-92-41.2-92-92v-4c0-53 43-96 96-96h40V192H96C43 192 0 149 0 96V92zm136 52v-8V92c0-24.3-19.7-44-44-44S48 67.7 48 92v4c0 26.5 21.5 48 48 48h40zm48 176v8H328v-8V192v-8H184v8V320zm-48 48H96c-26.5 0-48 21.5-48 48v4c0 24.3 19.7 44 44 44s44-19.7 44-44V376v-8zm240 8v44c0 24.3 19.7 44 44 44s44-19.7 44-44v-4c0-26.5-21.5-48-48-48H376v8zm0-232h40c26.5 0 48-21.5 48-48V92c0-24.3-19.7-44-44-44s-44 19.7-44 44v44 8z"
    />
  </symbol>
  <symbol id="dinosaur" viewBox="0 0 1024 1024">
    <path
      d="M879.028 203.277H559.911l-19.06-65.018-13.486-7.694-79.352 20.153-8.087 13.591 32.411 127.623-0.94-0.717-16.65 3.634-20.152 37.788v10.529l27.896 52.297-15.354 42.652-12.823-11.537-17.291 2.934-21.411 39.048-0.044 10.683 14.316 26.578-18.622 25.781-7.694-13.082-17.392-2.396-28.971 27.845-3.433 8.065v25.355l-36.831 15.67v-20.873l-17.261-9.39-37.34 24.161-36.969-19.414 8.155-35.695-9.48-13.583-33.853-4.344c-4.73-13.941-15.146-58.723 3.088-149.897l-19.989-8.8c-3.513 4.795-85.815 118.703-66.081 227.416 8.738 48.131 36.182 87.602 81.577 117.308 58.261 38.126 113.201 59.903 161.503 70.838L301.8 843.32l6.077 14.4 43.457 18.262 4.332 0.874h61.09l11.185-11.185v-35.899l-8.002-10.722-25.403-7.54 22.244-31.687c38.495-1.064 67.92-9.498 84.787-19.604a66.58 66.58 0 0 0 2.791 3.043l-50.069 69.417 4.948 16.94 66.758 26.451 4.121 0.787h74.317l11.185-11.185v-39.049l-11.185-11.185H561.56l-0.83-0.622 54.114-45.205a56.864 56.864 0 0 0 20.466-43.756c0-15.734-6.448-30.6-17.783-41.34 15.295-11.2 39.943-34.087 57.577-74.211a89.004 89.004 0 0 0 29.645-13.515l24.754-17.388c11.956-8.4 26.007-12.841 40.624-12.841h46.235l11.185-11.185v-23.618l-8.986-10.966-53.946-10.813a92.828 92.828 0 0 0-52.756 4.809l-16.193 6.458c2.909-29.346 0.317-50.997-4.015-78.002h187.377l11.185-11.185V214.462l-11.185-11.185z"
      fill="#FCE3C3"
    ></path>
    <path
      d="M559.911 203.277l-19.06-65.018-13.486-7.694-79.352 20.153-8.087 13.591 32.411 127.623-0.94-0.717-16.65 3.634-20.152 37.788v10.529l27.896 52.297-15.354 42.652-12.823-11.537-17.291 2.934-21.411 39.048-0.044 10.683 14.316 26.578-18.622 25.781-7.694-13.082-17.392-2.396-28.971 27.845-3.433 8.065v25.355l-36.831 15.67v-20.873l-17.261-9.39-37.34 24.161-36.969-19.414 8.155-35.695-9.48-13.583-33.853-4.344c-4.73-13.941-15.146-58.723 3.088-149.897l-19.989-8.8c-1.726 2.356-22.462 31.05-40.777 72.514-15.495 70.715 0.845 167.923 42.855 211.574 42.014 43.655 131.834 89.688 262.033 40.39C573.468 620.61 545.321 522.858 576.112 477.07c34.974-52.007 91.302-43.105 91.302-43.105l57.126 9.277h154.488l11.185-11.185V214.462l-11.185-11.185H559.911z"
      fill="#ED8F27"
    ></path>
    <path
      d="M604.435 876.857h-74.317l-4.121-0.787-66.759-26.451-4.948-16.94 50.069-69.417c-13.114-13.377-16.08-28.679-35.58-28.679v-22.369c37.435 0 54.215 37.905 58.489 42.882l0.586 13.832-47.017 65.185 51.416 20.375h60.998v-16.679h-35.418l-6.71-2.235-15.117-11.334-0.459-17.534 64.96-54.264a34.55 34.55 0 0 0 12.434-26.585 34.55 34.55 0 0 0-12.434-26.582l-2.039-2.238-40.771-44.378 18.415-12.692 39.952 43.187c12.252 10.825 19.246 26.298 19.246 42.704a56.864 56.864 0 0 1-20.466 43.756l-54.114 45.205 0.83 0.622h42.875l11.185 11.185v39.049l-11.185 11.182zM416.756 876.857h-61.09l-4.332-0.874-43.457-18.263-6.077-14.399 33.365-84.942 20.818 8.178-29.37 74.772 31.307 13.158h47.652v-16.366l-32.306-9.59-5.971-17.148 34.639-49.341 18.307 12.852-25.705 36.616 25.403 7.54 8.002 10.723v35.899z"
      fill="#300604"
    ></path>
    <path
      d="M408.575 779.944c-62.543 0.004-146.952-19.246-239.787-79.997-45.394-29.706-72.838-69.177-81.577-117.308-19.734-108.712 62.568-222.62 66.081-227.415l19.989 8.8c-18.233 91.174-7.817 135.957-3.088 149.897l33.853 4.344 9.48 13.583-8.155 35.695 36.969 19.414 37.34-24.161 17.261 9.39v20.873l36.831-15.67v-25.355l3.433-8.065 28.971-27.845 17.392 2.396 7.694 13.082 18.622-25.781-14.316-26.578 0.044-10.683 21.411-39.048 17.291-2.934 12.823 11.537 15.354-42.652-27.896-52.297v-10.529l20.152-37.788 16.65-3.634 0.94 0.717-32.411-127.623 8.087-13.591 79.352-20.153 13.486 7.694 19.06 65.018h319.117l11.185 11.185v217.595l-11.185 11.185H691.652c5.29 32.983 7.992 57.971 1.237 98.756l-21.812 3.457c7.071-42.696 2.523-75.755-3.663-111.49l11.021-13.093h189.409V225.646h-316.31l-10.734-8.039-18.382-62.707-58.057 14.742 37.551 147.873-17.618 11.651-15.994-12.19-11.156 20.924 27.423 51.416 0.652 9.051-22.671 62.98-18.004 4.525-14.694-13.224-11.702 21.336 14.756 27.397-0.782 11.854-32.75 45.347-18.707-0.881-9.197-15.634-15.324 14.727v27.988l-6.805 10.292-59.201 25.191-15.565-10.292v-17.229l-25.566 16.541-11.276 0.513-50.382-26.45-5.705-12.393 7.329-32.073-28.082-3.601-8.334-5.625c-0.874-1.558-17.793-33.034-9.925-112.742-20.964 41.462-44.01 103.502-33.398 161.807 7.613 41.823 31.771 76.309 71.801 102.504 165.429 108.261 296.228 74.114 314.723 55.618l15.816 15.816c-13.881 13.883-50.836 27.282-102.999 27.285z"
      fill="#300604"
    ></path>
    <path
      d="M603.565 693.288l-9.692-20.163 4.846 10.082-4.889-10.06c0.385-0.189 38.56-19.449 61.756-74.047l20.585 8.745c-26.677 62.797-70.746 84.548-72.606 85.443zM745.07 314.958h129.935v22.369H745.07z"
      fill="#300604"
    ></path>
    <path
      d="M653.554 612.965a88.946 88.946 0 0 1-30.339-5.33l-14.635-3.016L614.333 583l16.127 3.463a66.677 66.677 0 0 0 61.432-7.981l24.751-17.388c15.743-11.057 34.239-16.905 53.484-16.905h35.051v-3.27l-44.961-9.011a70.521 70.521 0 0 0-40.071 3.652l-56.776 22.642-6.124 0.619c-2.115-0.379-22.216 10.667-63.416-55.188l18.962-11.862c30.67 49.017 35.447 41.415 45.616 44.331l53.452-21.317c16.791-6.699 35.024-8.359 52.756-4.809l53.946 10.813 8.986 10.966v23.618l-11.185 11.185h-46.235c-14.618 0-28.668 4.442-40.624 12.842l-24.754 17.388a89.067 89.067 0 0 1-51.196 16.177z"
      fill="#300604"
    ></path>
    <path
      d="M734.235 861.672l33-81.426 20.73 8.402-32.998 81.426zM801.765 867.314l-20.731-8.402 13.704-33.817 20.732 8.402z"
      fill="#300604"
    ></path>
    <path
      d="M215.058 870.01l-32.999-81.427 20.732-8.402 32.999 81.426zM154.596 833.525l20.732-8.402 13.705 33.818-20.732 8.401z"
      fill="#300604"
    ></path>
    <path
      d="M593.829 255.953l88.179 29.046s-12.991 51.601-66.423 32.75c-31.277-11.036-21.756-61.796-21.756-61.796z"
      fill="#300604"
    ></path>
    <path d="M745.07 324.249l22.111 53.888 24.047-52.997z" fill="#FCE3C3" p-id="6883"></path>
    <path
      d="M775.376 381.855l-16.521-0.303-22.11-53.888 8.5-12.414 46.158 0.891 8.021 12.717-24.048 52.997z m-16.777-48.343l8.998 21.929 9.785-21.566-18.783-0.363z"
      fill="#300604"
    ></path>
    <path
      d="M262.403 363.322s8.039 8.12 26.008 9.23 22.886-6.701 22.886-6.701l28.651-48.029-34.328-49.225-35.169 15.317-22.901 45.142 14.853 34.266z"
      fill="#B12800"
    ></path>
    <path
      d="M262.403 363.322c-8.077-20.119-2.497-31.056 5.466-40.865 8.542-11.245 11.191-22.363 11.191-22.363s5.87 8.21 2.642 20.764c11.504-11.552 14.666-30.977 13.652-38.397 23.376 18.611 31.803 56.9 15.943 83.389 77.905-38.354 25.176-105.865 15.826-113.31 2.968 7.541 2.702 19.787-4.501 25.228-8.584-43.694-35.923-53.721-35.923-53.721 2.063 22.2-14.563 45.208-30.339 62.382 0.054-8.826-0.072-14.719-4.415-23.817-1.973 16.065-14.973 28.015-19.39 43.929-5.755 21.719 1.097 37.839 29.848 56.781z"
      fill="#B12800"
    ></path>
    <path
      d="M331.907 458.698s3.643 3.68 11.785 4.182c8.143 0.503 10.371-3.037 10.371-3.037l12.983-21.764-15.556-22.306-15.937 6.941-10.378 20.456 6.732 15.528z"
      fill="#B12800"
    ></path>
    <path
      d="M331.907 458.698c-3.66-9.117-1.131-14.073 2.477-18.518 3.871-5.095 5.071-10.134 5.071-10.134s2.66 3.721 1.197 9.409c5.213-5.235 6.646-14.037 6.187-17.4 10.593 8.434 14.411 25.784 7.224 37.787 35.303-17.38 11.408-47.973 7.171-51.346 1.345 3.417 1.225 8.966-2.039 11.432-3.89-19.8-16.278-24.343-16.278-24.343 0.935 10.06-6.599 20.486-13.748 28.268 0.025-3.999-0.033-6.67-2.001-10.792-0.894 7.28-6.785 12.695-8.786 19.906-2.609 9.843 0.496 17.147 13.525 25.731z"
      fill="#B12800"
    ></path>
  </symbol>
  <symbol id="github" viewBox="0 0 496 512">
    <path
      d="M165.9 397.4c0 2-2.3 3.6-5.2 3.6-3.3.3-5.6-1.3-5.6-3.6 0-2 2.3-3.6 5.2-3.6 3-.3 5.6 1.3 5.6 3.6zm-31.1-4.5c-.7 2 1.3 4.3 4.3 4.9 2.6 1 5.6 0 6.2-2s-1.3-4.3-4.3-5.2c-2.6-.7-5.5.3-6.2 2.3zm44.2-1.7c-2.9.7-4.9 2.6-4.6 4.9.3 2 2.9 3.3 5.9 2.6 2.9-.7 4.9-2.6 4.6-4.6-.3-1.9-3-3.2-5.9-2.9zM244.8 8C106.1 8 0 113.3 0 252c0 110.9 69.8 205.8 169.5 239.2 12.8 2.3 17.3-5.6 17.3-12.1 0-6.2-.3-40.4-.3-61.4 0 0-70 15-84.7-29.8 0 0-11.4-29.1-27.8-36.6 0 0-22.9-15.7 1.6-15.4 0 0 24.9 2 38.6 25.8 21.9 38.6 58.6 27.5 72.9 20.9 2.3-16 8.8-27.1 16-33.7-55.9-6.2-112.3-14.3-112.3-110.5 0-27.5 7.6-41.3 23.6-58.9-2.6-6.5-11.1-33.3 2.6-67.9 20.9-6.5 69 27 69 27 20-5.6 41.5-8.5 62.8-8.5s42.8 2.9 62.8 8.5c0 0 48.1-33.6 69-27 13.7 34.7 5.2 61.4 2.6 67.9 16 17.7 25.8 31.5 25.8 58.9 0 96.5-58.9 104.2-114.8 110.5 9.2 7.9 17 22.9 17 46.4 0 33.7-.3 75.4-.3 83.6 0 6.5 4.6 14.4 17.3 12.1C428.2 457.8 496 362.9 496 252 496 113.3 383.5 8 244.8 8zM97.2 352.9c-1.3 1-1 3.3.7 5.2 1.6 1.6 3.9 2.3 5.2 1 1.3-1 1-3.3-.7-5.2-1.6-1.6-3.9-2.3-5.2-1zm-10.8-8.1c-.7 1.3.3 2.9 2.3 3.9 1.6 1 3.6.7 4.3-.7.7-1.3-.3-2.9-2.3-3.9-2-.6-3.6-.3-4.3.7zm32.4 35.6c-1.6 1.3-1 4.3 1.3 6.2 2.3 2.3 5.2 2.6 6.5 1 1.3-1.3.7-4.3-1.3-6.2-2.2-2.3-5.2-2.6-6.5-1zm-11.4-14.7c-1.6 1-1.6 3.6 0 5.9 1.6 2.3 4.3 3.3 5.6 2.3 1.6-1.3 1.6-3.9 0-6.2-1.4-2.3-4-3.3-5.6-2z"
    />
  </symbol>
  <symbol id="h1-regular" viewBox="0 0 576 512">
    <path
      d="M48 88c0-13.3-10.7-24-24-24S0 74.7 0 88V248 424c0 13.3 10.7 24 24 24s24-10.7 24-24V272H272V424c0 13.3 10.7 24 24 24s24-10.7 24-24V248 88c0-13.3-10.7-24-24-24s-24 10.7-24 24V224H48V88zm456 0c0-8.5-4.5-16.4-11.8-20.7s-16.4-4.4-23.8-.3l-72 40c-11.6 6.4-15.8 21-9.3 32.6s21 15.8 32.6 9.3L456 128.8V400H408c-13.3 0-24 10.7-24 24s10.7 24 24 24h72 72c13.3 0 24-10.7 24-24s-10.7-24-24-24H504V88z"
    />
  </symbol>
  <symbol id="h1-solid" viewBox="0 0 576 512">
    <path
      d="M64 96c0-17.7-14.3-32-32-32S0 78.3 0 96V256 416c0 17.7 14.3 32 32 32s32-14.3 32-32V288H256V416c0 17.7 14.3 32 32 32s32-14.3 32-32V256 96c0-17.7-14.3-32-32-32s-32 14.3-32 32V224H64V96zm448 0c0-11.1-5.7-21.4-15.2-27.2s-21.2-6.4-31.1-1.4l-64 32c-15.8 7.9-22.2 27.1-14.3 42.9s27.1 22.2 42.9 14.3l17.7-8.8V384H416c-17.7 0-32 14.3-32 32s14.3 32 32 32h64 64c17.7 0 32-14.3 32-32s-14.3-32-32-32H512V96z"
    />
  </symbol>
  <symbol id="h2-regular" viewBox="0 0 640 512">
    <path
      d="M48 88c0-13.3-10.7-24-24-24S0 74.7 0 88V248 424c0 13.3 10.7 24 24 24s24-10.7 24-24V272H272V424c0 13.3 10.7 24 24 24s24-10.7 24-24V248 88c0-13.3-10.7-24-24-24s-24 10.7-24 24V224H48V88zm397.3 40.8C457.9 118 474 112 490.7 112h9.2c42.1 0 76.2 34.1 76.2 76.2c0 21.3-8.9 41.5-24.5 56L375.7 406.4c-7.3 6.7-9.7 17.2-6.1 26.4s12.5 15.3 22.4 15.3H616c13.3 0 24-10.7 24-24s-10.7-24-24-24H453.4L584.1 279.4c25.5-23.5 39.9-56.6 39.9-91.2C624 119.6 568.4 64 499.8 64h-9.2c-28.1 0-55.3 10.1-76.6 28.3l-29.7 25.4c-10.1 8.6-11.2 23.8-2.6 33.8s23.8 11.2 33.8 2.6l29.7-25.4z"
    />
  </symbol>
  <symbol id="h2-solid" viewBox="0 0 640 512">
    <path
      d="M64 96c0-17.7-14.3-32-32-32S0 78.3 0 96V256 416c0 17.7 14.3 32 32 32s32-14.3 32-32V288H256V416c0 17.7 14.3 32 32 32s32-14.3 32-32V256 96c0-17.7-14.3-32-32-32s-32 14.3-32 32V224H64V96zm385.9 47.4c11.6-9.9 26.4-15.4 41.7-15.4H496c35.3 0 64 28.7 64 64v5.8c0 17.9-7.5 35.1-20.8 47.2L378.4 392.4c-9.7 8.9-13 22.9-8.2 35.2S386.8 448 400 448H608c17.7 0 32-14.3 32-32s-14.3-32-32-32H482.3l100.2-91.9c26.4-24.2 41.5-58.5 41.5-94.4V192c0-70.7-57.3-128-128-128h-4.5c-30.6 0-60.1 10.9-83.3 30.8l-29 24.9c-13.4 11.5-15 31.7-3.5 45.1s31.7 15 45.1 3.5l29-24.9z"
    />
  </symbol>
  <symbol id="h3-regular" viewBox="0 0 640 512">
    <path
      d="M48 88c0-13.3-10.7-24-24-24S0 74.7 0 88V248 424c0 13.3 10.7 24 24 24s24-10.7 24-24V272H272V424c0 13.3 10.7 24 24 24s24-10.7 24-24V248 88c0-13.3-10.7-24-24-24s-24 10.7-24 24V224H48V88zM400 64c-13.3 0-24 10.7-24 24s10.7 24 24 24H542.1L423 231c-6.9 6.9-8.9 17.2-5.2 26.2s12.5 14.8 22.2 14.8h88c35.3 0 64 28.7 64 64s-28.7 64-64 64H455.4c-15.6 0-29-11.3-31.6-26.7l-.2-1.2c-2.2-13.1-14.5-21.9-27.6-19.7s-21.9 14.5-19.7 27.6l.2 1.2c6.4 38.6 39.8 66.8 78.9 66.8H528c61.9 0 112-50.1 112-112s-50.1-112-112-112H497.9L617 105c6.9-6.9 8.9-17.2 5.2-26.2S609.7 64 600 64H400z"
    />
  </symbol>
  <symbol id="h3-solid" viewBox="0 0 640 512">
    <path
      d="M64 96c0-17.7-14.3-32-32-32S0 78.3 0 96V256 416c0 17.7 14.3 32 32 32s32-14.3 32-32V288H256V416c0 17.7 14.3 32 32 32s32-14.3 32-32V256 96c0-17.7-14.3-32-32-32s-32 14.3-32 32V224H64V96zM400 64c-17.7 0-32 14.3-32 32s14.3 32 32 32H514.7l-89.4 89.4c-9.2 9.2-11.9 22.9-6.9 34.9s16.6 19.8 29.6 19.8h72c30.9 0 56 25.1 56 56s-25.1 56-56 56H455.4c-11.7 0-21.7-8.5-23.7-20.1l-.2-1.2c-2.9-17.4-19.4-29.2-36.8-26.3s-29.2 19.4-26.3 36.8l.2 1.2c7.1 42.4 43.8 73.5 86.8 73.5H520c66.3 0 120-53.7 120-120c0-64.6-51-117.2-114.9-119.9l89.5-89.5c9.2-9.2 11.9-22.9 6.9-34.9s-16.6-19.8-29.6-19.8H400z"
    />
  </symbol>
  <symbol id="h4-regular" viewBox="0 0 640 512">
    <path
      d="M455.5 92.9L421.5 256H592V88c0-13.3 10.7-24 24-24s24 10.7 24 24V424c0 13.3-10.7 24-24 24s-24-10.7-24-24V304H392c-7.2 0-14.1-3.3-18.6-8.9s-6.3-13-4.9-20l40-192c2.7-13 15.4-21.3 28.4-18.6s21.3 15.4 18.6 28.4zM24 64c13.3 0 24 10.7 24 24V224H272V88c0-13.3 10.7-24 24-24s24 10.7 24 24V248 424c0 13.3-10.7 24-24 24s-24-10.7-24-24V272H48V424c0 13.3-10.7 24-24 24s-24-10.7-24-24V248 88C0 74.7 10.7 64 24 64z"
    />
  </symbol>
  <symbol id="h5-regular" viewBox="0 0 640 512">
    <path
      d="M48 88c0-13.3-10.7-24-24-24S0 74.7 0 88V248 424c0 13.3 10.7 24 24 24s24-10.7 24-24V272H272V424c0 13.3 10.7 24 24 24s24-10.7 24-24V248 88c0-13.3-10.7-24-24-24s-24 10.7-24 24V224H48V88zM440 64c-11.4 0-21.3 8.1-23.5 19.3l-32 160c-1.4 7.1 .4 14.4 5 19.9s11.4 8.8 18.6 8.8H528c35.3 0 64 28.7 64 64s-28.7 64-64 64H464.4c-13.8 0-26-8.8-30.4-21.9l-3.2-9.7c-4.2-12.6-17.8-19.4-30.4-15.2s-19.4 17.8-15.2 30.4l3.2 9.7C399.4 426 429.9 448 464.4 448H528c61.9 0 112-50.1 112-112s-50.1-112-112-112H437.3l22.4-112H584c13.3 0 24-10.7 24-24s-10.7-24-24-24H440z"
    />
  </symbol>
  <symbol id="h6-regular" viewBox="0 0 640 512">
    <path
      d="M48 88c0-13.3-10.7-24-24-24S0 74.7 0 88V248 424c0 13.3 10.7 24 24 24s24-10.7 24-24V272H272V424c0 13.3 10.7 24 24 24s24-10.7 24-24V248 88c0-13.3-10.7-24-24-24s-24 10.7-24 24V224H48V88zM519 69.3c-10.3-8.3-25.5-6.6-33.7 3.7l-98 122.5C364.4 224 352 259.5 352 296h.2c-.1 2.6-.2 5.3-.2 8c0 79.5 64.5 144 144 144s144-64.5 144-144s-64.5-144-144-144c-6.8 0-13.4 .5-20 1.4L522.7 103c8.3-10.4 6.6-25.5-3.8-33.7zM496 208a96 96 0 1 1 0 192 96 96 0 1 1 0-192z"
    />
  </symbol>
  <symbol id="i-solid" viewBox="0 0 320 512">
    <path
      d="M32 32C14.3 32 0 46.3 0 64S14.3 96 32 96h96V416H32c-17.7 0-32 14.3-32 32s14.3 32 32 32H288c17.7 0 32-14.3 32-32s-14.3-32-32-32H192V96h96c17.7 0 32-14.3 32-32s-14.3-32-32-32H160 32z"
    />
  </symbol>
  <symbol id="image-regular" viewBox="0 0 512 512">
    <path
      d="M448 80c8.8 0 16 7.2 16 16V415.8l-5-6.5-136-176c-4.5-5.9-11.6-9.3-19-9.3s-14.4 3.4-19 9.3L202 340.7l-30.5-42.7C167 291.7 159.8 288 152 288s-15 3.7-19.5 10.1l-80 112L48 416.3l0-.3V96c0-8.8 7.2-16 16-16H448zM64 32C28.7 32 0 60.7 0 96V416c0 35.3 28.7 64 64 64H448c35.3 0 64-28.7 64-64V96c0-35.3-28.7-64-64-64H64zm80 192a48 48 0 1 0 0-96 48 48 0 1 0 0 96z"
    />
  </symbol>
  <symbol id="italic-solid" viewBox="0 0 384 512">
    <path
      d="M128 64c0-17.7 14.3-32 32-32H352c17.7 0 32 14.3 32 32s-14.3 32-32 32H293.3L160 416h64c17.7 0 32 14.3 32 32s-14.3 32-32 32H32c-17.7 0-32-14.3-32-32s14.3-32 32-32H90.7L224 96H160c-17.7 0-32-14.3-32-32z"
    />
  </symbol>
  <symbol id="link-solid" viewBox="0 0 640 512">
    <path
      d="M579.8 267.7c56.5-56.5 56.5-148 0-204.5c-50-50-128.8-56.5-186.3-15.4l-1.6 1.1c-14.4 10.3-17.7 30.3-7.4 44.6s30.3 17.7 44.6 7.4l1.6-1.1c32.1-22.9 76-19.3 103.8 8.6c31.5 31.5 31.5 82.5 0 114L422.3 334.8c-31.5 31.5-82.5 31.5-114 0c-27.9-27.9-31.5-71.8-8.6-103.8l1.1-1.6c10.3-14.4 6.9-34.4-7.4-44.6s-34.4-6.9-44.6 7.4l-1.1 1.6C206.5 251.2 213 330 263 380c56.5 56.5 148 56.5 204.5 0L579.8 267.7zM60.2 244.3c-56.5 56.5-56.5 148 0 204.5c50 50 128.8 56.5 186.3 15.4l1.6-1.1c14.4-10.3 17.7-30.3 7.4-44.6s-30.3-17.7-44.6-7.4l-1.6 1.1c-32.1 22.9-76 19.3-103.8-8.6C74 372 74 321 105.5 289.5L217.7 177.2c31.5-31.5 82.5-31.5 114 0c27.9 27.9 31.5 71.8 8.6 103.9l-1.1 1.6c-10.3 14.4-6.9 34.4 7.4 44.6s34.4 6.9 44.6-7.4l1.1-1.6C433.5 260.8 427 182 377 132c-56.5-56.5-148-56.5-204.5 0L60.2 244.3z"
    />
  </symbol>
  <symbol id="list-check-solid" viewBox="0 0 512 512">
    <path
      d="M152.1 38.2c9.9 8.9 10.7 24 1.8 33.9l-72 80c-4.4 4.9-10.6 7.8-17.2 7.9s-12.9-2.4-17.6-7L7 113C-2.3 103.6-2.3 88.4 7 79s24.6-9.4 33.9 0l22.1 22.1 55.1-61.2c8.9-9.9 24-10.7 33.9-1.8zm0 160c9.9 8.9 10.7 24 1.8 33.9l-72 80c-4.4 4.9-10.6 7.8-17.2 7.9s-12.9-2.4-17.6-7L7 273c-9.4-9.4-9.4-24.6 0-33.9s24.6-9.4 33.9 0l22.1 22.1 55.1-61.2c8.9-9.9 24-10.7 33.9-1.8zM224 96c0-17.7 14.3-32 32-32H480c17.7 0 32 14.3 32 32s-14.3 32-32 32H256c-17.7 0-32-14.3-32-32zm0 160c0-17.7 14.3-32 32-32H480c17.7 0 32 14.3 32 32s-14.3 32-32 32H256c-17.7 0-32-14.3-32-32zM160 416c0-17.7 14.3-32 32-32H480c17.7 0 32 14.3 32 32s-14.3 32-32 32H192c-17.7 0-32-14.3-32-32zM48 368a48 48 0 1 1 0 96 48 48 0 1 1 0-96z"
    />
  </symbol>
  <symbol id="list-ol-solid" viewBox="0 0 512 512">
    <path
      d="M24 56c0-13.3 10.7-24 24-24H80c13.3 0 24 10.7 24 24V176h16c13.3 0 24 10.7 24 24s-10.7 24-24 24H40c-13.3 0-24-10.7-24-24s10.7-24 24-24H56V80H48C34.7 80 24 69.3 24 56zM86.7 341.2c-6.5-7.4-18.3-6.9-24 1.2L51.5 357.9c-7.7 10.8-22.7 13.3-33.5 5.6s-13.3-22.7-5.6-33.5l11.1-15.6c23.7-33.2 72.3-35.6 99.2-4.9c21.3 24.4 20.8 60.9-1.1 84.7L86.8 432H120c13.3 0 24 10.7 24 24s-10.7 24-24 24H32c-9.5 0-18.2-5.6-22-14.4s-2.1-18.9 4.3-25.9l72-78c5.3-5.8 5.4-14.6 .3-20.5zM224 64H480c17.7 0 32 14.3 32 32s-14.3 32-32 32H224c-17.7 0-32-14.3-32-32s14.3-32 32-32zm0 160H480c17.7 0 32 14.3 32 32s-14.3 32-32 32H224c-17.7 0-32-14.3-32-32s14.3-32 32-32zm0 160H480c17.7 0 32 14.3 32 32s-14.3 32-32 32H224c-17.7 0-32-14.3-32-32s14.3-32 32-32z"
    />
  </symbol>
  <symbol id="list-ul-solid" viewBox="0 0 512 512">
    <path
      d="M64 144a48 48 0 1 0 0-96 48 48 0 1 0 0 96zM192 64c-17.7 0-32 14.3-32 32s14.3 32 32 32H480c17.7 0 32-14.3 32-32s-14.3-32-32-32H192zm0 160c-17.7 0-32 14.3-32 32s14.3 32 32 32H480c17.7 0 32-14.3 32-32s-14.3-32-32-32H192zm0 160c-17.7 0-32 14.3-32 32s14.3 32 32 32H480c17.7 0 32-14.3 32-32s-14.3-32-32-32H192zM64 464a48 48 0 1 0 0-96 48 48 0 1 0 0 96zm48-208a48 48 0 1 0 -96 0 48 48 0 1 0 96 0z"
    />
  </symbol>
  <symbol id="loading" viewBox="0 0 48 48" stroke-width="6" stroke="currentColor" fill="none">
    <path d="M 10.144 32 A 16 16 0 0 1 24 8" />
  </symbol>
  <symbol id="paragraph-regular" viewBox="0 0 448 512">
    <path
      d="M32 192c0-88.4 71.6-160 160-160h64H424c13.3 0 24 10.7 24 24s-10.7 24-24 24H384l0 376c0 13.3-10.7 24-24 24s-24-10.7-24-24l0-376H288V456c0 13.3-10.7 24-24 24s-24-10.7-24-24V352H192c-88.4 0-160-71.6-160-160zM240 304V80H192C130.1 80 80 130.1 80 192s50.1 112 112 112h48z"
    />
  </symbol>
  <symbol id="plus-solid" viewBox="0 0 448 512">
    <path
      d="M256 80c0-17.7-14.3-32-32-32s-32 14.3-32 32V224H48c-17.7 0-32 14.3-32 32s14.3 32 32 32H192V432c0 17.7 14.3 32 32 32s32-14.3 32-32V288H400c17.7 0 32-14.3 32-32s-14.3-32-32-32H256V80z"
    />
  </symbol>
  <symbol id="quote-left-solid" viewBox="0 0 448 512">
    <path
      d="M0 216C0 149.7 53.7 96 120 96h8c17.7 0 32 14.3 32 32s-14.3 32-32 32h-8c-30.9 0-56 25.1-56 56v8h64c35.3 0 64 28.7 64 64v64c0 35.3-28.7 64-64 64H64c-35.3 0-64-28.7-64-64V320 288 216zm256 0c0-66.3 53.7-120 120-120h8c17.7 0 32 14.3 32 32s-14.3 32-32 32h-8c-30.9 0-56 25.1-56 56v8h64c35.3 0 64 28.7 64 64v64c0 35.3-28.7 64-64 64H320c-35.3 0-64-28.7-64-64V320 288 216z"
    />
  </symbol>
  <symbol id="s-solid" viewBox="0 0 320 512">
    <path
      d="M99.1 105.4C79 114 68.2 127.2 65.2 144.8c-2.4 14.1-.7 23.2 2 29.4c2.8 6.3 7.9 12.4 16.7 18.6c19.2 13.4 48.3 22.1 84.9 32.5c1 .3 1.9 .6 2.9 .8c32.7 9.3 72 20.6 100.9 40.7c15.7 10.9 29.9 25.5 38.6 45.1c8.8 19.8 10.8 42 6.6 66.3c-7.3 42.5-35.3 71.7-71.8 87.3c-35.4 15.2-79.1 17.9-123.7 10.9l-.2 0 0 0c-24-3.9-62.7-17.1-87.6-25.6c-4.8-1.7-9.2-3.1-12.8-4.3C5.1 440.8-3.9 422.7 1.6 405.9s23.7-25.8 40.5-20.3c4.9 1.6 10.2 3.4 15.9 5.4c25.4 8.6 56.4 19.2 74.4 22.1c36.8 5.7 67.5 2.5 88.5-6.5c20.1-8.6 30.8-21.8 33.9-39.4c2.4-14.1 .7-23.2-2-29.4c-2.8-6.3-7.9-12.4-16.7-18.6c-19.2-13.4-48.3-22.1-84.9-32.5c-1-.3-1.9-.6-2.9-.8c-32.7-9.3-72-20.6-100.9-40.7c-15.7-10.9-29.9-25.5-38.6-45.1c-8.8-19.8-10.8-42-6.6-66.3l31.5 5.5L2.1 133.9C9.4 91.4 37.4 62.2 73.9 46.6c35.4-15.2 79.1-17.9 123.7-10.9c13 2 52.4 9.6 66.6 13.4c17.1 4.5 27.2 22.1 22.7 39.2s-22.1 27.2-39.2 22.7c-11.2-3-48.1-10.2-60.1-12l4.9-31.5-4.9 31.5c-36.9-5.8-67.5-2.5-88.6 6.5z"
    />
  </symbol>
  <symbol id="strikethrough-solid" viewBox="0 0 512 512">
    <path
      d="M161.3 144c3.2-17.2 14-30.1 33.7-38.6c21.1-9 51.8-12.3 88.6-6.5c11.9 1.9 48.8 9.1 60.1 12c17.1 4.5 34.6-5.6 39.2-22.7s-5.6-34.6-22.7-39.2c-14.3-3.8-53.6-11.4-66.6-13.4c-44.7-7-88.3-4.2-123.7 10.9c-36.5 15.6-64.4 44.8-71.8 87.3c-.1 .6-.2 1.1-.2 1.7c-2.8 23.9 .5 45.6 10.1 64.6c4.5 9 10.2 16.9 16.7 23.9H32c-17.7 0-32 14.3-32 32s14.3 32 32 32H480c17.7 0 32-14.3 32-32s-14.3-32-32-32H270.1c-.1 0-.3-.1-.4-.1l-1.1-.3c-36-10.8-65.2-19.6-85.2-33.1c-9.3-6.3-15-12.6-18.2-19.1c-3.1-6.1-5.2-14.6-3.8-27.4zM348.9 337.2c2.7 6.5 4.4 15.8 1.9 30.1c-3 17.6-13.8 30.8-33.9 39.4c-21.1 9-51.7 12.3-88.5 6.5c-18-2.9-49.1-13.5-74.4-22.1c-5.6-1.9-11-3.7-15.9-5.4c-16.8-5.6-34.9 3.5-40.5 20.3s3.5 34.9 20.3 40.5c3.6 1.2 7.9 2.7 12.7 4.3l0 0 0 0c24.9 8.5 63.6 21.7 87.6 25.6l0 0 .2 0c44.7 7 88.3 4.2 123.7-10.9c36.5-15.6 64.4-44.8 71.8-87.3c3.6-21 2.7-40.4-3.1-58.1H335.1c7 5.6 11.4 11.2 13.9 17.2z"
    />
  </symbol>
  <symbol id="table-solid" viewBox="0 0 512 512">
    <path
      d="M64 256V160H224v96H64zm0 64H224v96H64V320zm224 96V320H448v96H288zM448 256H288V160H448v96zM64 32C28.7 32 0 60.7 0 96V416c0 35.3 28.7 64 64 64H448c35.3 0 64-28.7 64-64V96c0-35.3-28.7-64-64-64H64z"
    />
  </symbol>
  <symbol id="trash-can-regular" viewBox="0 0 448 512">
    <path
      d="M170.5 51.6L151.5 80h145l-19-28.4c-1.5-2.2-4-3.6-6.7-3.6H177.1c-2.7 0-5.2 1.3-6.7 3.6zm147-26.6L354.2 80H368h48 8c13.3 0 24 10.7 24 24s-10.7 24-24 24h-8V432c0 44.2-35.8 80-80 80H112c-44.2 0-80-35.8-80-80V128H24c-13.3 0-24-10.7-24-24S10.7 80 24 80h8H80 93.8l36.7-55.1C140.9 9.4 158.4 0 177.1 0h93.7c18.7 0 36.2 9.4 46.6 24.9zM80 128V432c0 17.7 14.3 32 32 32H336c17.7 0 32-14.3 32-32V128H80zm80 64V400c0 8.8-7.2 16-16 16s-16-7.2-16-16V192c0-8.8 7.2-16 16-16s16 7.2 16 16zm80 0V400c0 8.8-7.2 16-16 16s-16-7.2-16-16V192c0-8.8 7.2-16 16-16s16 7.2 16 16zm80 0V400c0 8.8-7.2 16-16 16s-16-7.2-16-16V192c0-8.8 7.2-16 16-16s16 7.2 16 16z"
    />
  </symbol>
  <symbol id="u-solid" viewBox="0 0 384 512">
    <path
      d="M32 32c17.7 0 32 14.3 32 32V288c0 70.7 57.3 128 128 128s128-57.3 128-128V64c0-17.7 14.3-32 32-32s32 14.3 32 32V288c0 106-86 192-192 192S0 394 0 288V64C0 46.3 14.3 32 32 32z"
    />
  </symbol>
  <symbol id="underline-solid" viewBox="0 0 448 512">
    <path
      d="M16 64c0-17.7 14.3-32 32-32h96c17.7 0 32 14.3 32 32s-14.3 32-32 32H128V224c0 53 43 96 96 96s96-43 96-96V96H304c-17.7 0-32-14.3-32-32s14.3-32 32-32h96c17.7 0 32 14.3 32 32s-14.3 32-32 32H384V224c0 88.4-71.6 160-160 160s-160-71.6-160-160V96H48C30.3 96 16 81.7 16 64zM0 448c0-17.7 14.3-32 32-32H416c17.7 0 32 14.3 32 32s-14.3 32-32 32H32c-17.7 0-32-14.3-32-32z"
    />
  </symbol>
  <symbol id="up-regular" viewBox="0 0 384 512">
    <path
      d="M192 82.4L334.7 232.3c.8 .8 1.3 2 1.3 3.2c0 2.5-2 4.6-4.6 4.6H248c-13.3 0-24 10.7-24 24V432H160V264c0-13.3-10.7-24-24-24H52.6c-2.5 0-4.6-2-4.6-4.6c0-1.2 .5-2.3 1.3-3.2L192 82.4zm192 153c0-13.5-5.2-26.5-14.5-36.3L222.9 45.2C214.8 36.8 203.7 32 192 32s-22.8 4.8-30.9 13.2L14.5 199.2C5.2 208.9 0 221.9 0 235.4c0 29 23.5 52.6 52.6 52.6H112V432c0 26.5 21.5 48 48 48h64c26.5 0 48-21.5 48-48V288h59.4c29 0 52.6-23.5 52.6-52.6z"
    />
  </symbol>
  <symbol id="xmark-solid" viewBox="0 0 384 512">
    <path
      d="M342.6 150.6c12.5-12.5 12.5-32.8 0-45.3s-32.8-12.5-45.3 0L192 210.7 86.6 105.4c-12.5-12.5-32.8-12.5-45.3 0s-12.5 32.8 0 45.3L146.7 256 41.4 361.4c-12.5 12.5-12.5 32.8 0 45.3s32.8 12.5 45.3 0L192 301.3 297.4 406.6c12.5 12.5 32.8 12.5 45.3 0s12.5-32.8 0-45.3L237.3 256 342.6 150.6z"
    />
  </symbol>
</svg>
